<svg width="25" height="39" viewBox="0 0 25 39" fill="none" xmlns="http://www.w3.org/2000/svg">
<path d="M20.2393 32.1376C19.895 32.0992 19.4826 32.0822 19.0108 32.0822C19.0108 32.0822 17.6547 32.0651 17.5229 32.0267C17.1361 31.95 16.7577 31.8647 16.3921 31.7708C16.0265 31.677 15.7332 31.5149 15.5206 31.2889C15.0445 30.76 14.7767 30.1458 14.7129 29.4421C14.6492 28.7426 14.6152 27.9194 14.6152 26.9726V20.3233V16.8003C14.6577 16.6126 14.6577 16.4036 14.6152 16.1776C14.5727 15.9515 14.6152 7.0545 14.6152 6.75167V6.12897C14.5727 5.9413 14.5599 5.72378 14.5812 5.47641C14.6024 5.22903 14.6152 5.01151 14.6152 4.82384V2.26904C14.6152 2.0046 14.6152 1.74017 14.6152 1.47573C14.6152 1.21129 14.5727 0.985242 14.4876 0.793311C14.2708 0.37533 13.9137 0.140748 13.4206 0.0853018C12.9232 0.0298553 12.3536 0 11.7074 0H7.37561C7.29058 0.038386 7.17154 0.0469161 7.0185 0.0298557C6.86547 0.0127952 6.74644 0.0213253 6.66142 0.0597113C6.23206 0.174869 5.90473 0.417981 5.69217 0.797576C5.60715 1.02363 5.56465 1.30939 5.56465 1.6506C5.56465 1.99181 5.56465 2.31169 5.56465 2.61452V6.1375C5.56465 6.47871 5.55189 6.81992 5.53063 7.16113C5.50938 7.50234 5.43286 7.80516 5.30532 8.06959C5.08852 8.44919 4.70168 8.66671 4.14054 8.72216C3.5794 8.7776 2.97574 8.80746 2.32958 8.80746C2.11277 8.80746 1.92148 8.79893 1.74718 8.7776C1.57289 8.76054 1.40285 8.78613 1.22855 8.86291C0.58239 9.01645 0.216799 9.29795 0.127527 9.71593C0.0425055 10.1339 0 10.6798 0 11.3623V12.5565C0.0850214 12.8977 0.170036 13.1792 0.259309 13.4095C0.34433 13.6356 0.561143 13.8062 0.90548 13.9213C1.42411 14.1133 2.04475 14.1687 2.78019 14.0919C3.51137 14.0152 4.11503 14.0749 4.59115 14.2625C5.02051 14.4161 5.32233 14.753 5.49663 15.2862C5.58165 15.5122 5.61566 15.7596 5.59441 16.024C5.57315 16.2885 5.56039 16.5529 5.56039 16.8173V19.8285V28.2905V30.4486C5.52213 31.6258 5.73044 33.4214 5.81971 33.5707C6.12154 34.4408 6.57215 35.2384 7.1758 35.9549C7.26083 36.0317 7.84747 36.6842 8.66368 37.034C9.05053 37.2259 9.46287 37.3923 9.89223 37.5458C10.3216 37.6993 10.7765 37.8316 11.2483 37.9425C11.5076 37.9808 11.7669 38.0192 12.0263 38.0576C12.2856 38.096 12.5662 38.1344 12.868 38.1728C13.0848 38.2112 13.3228 38.2282 13.5779 38.2282C13.833 38.2282 15.002 38.2837 15.002 38.2837C15.1721 38.322 17.3699 38.322 17.5867 38.2837C18.05 38.305 19.2573 38.3604 20.2351 38.1131C20.9365 37.9339 21.2808 37.4392 21.3021 36.7781C21.3234 36.117 21.3319 35.3876 21.3319 34.5901C21.3319 34.2105 21.3319 33.8437 21.3319 33.4811C21.3319 33.1229 21.2468 32.8286 21.0725 32.6025C20.8642 32.3253 20.5837 32.1718 20.2393 32.1376Z" fill="white"/>
<path d="M24.788 6.93933C24.788 6.93933 17.7695 6.79431 16.4134 7.12699C15.0573 7.45967 12.0348 8.29563 10.717 12.4669C10.5894 13.0854 12.0433 15.252 16.864 15.4269C21.6805 15.606 24.6435 10.8248 24.788 6.93933Z" fill="#76B82A"/>
</svg>
