<?xml version="1.0" encoding="utf-8"?>
<!-- Generator: Adobe Illustrator 26.2.1, SVG Export Plug-In . SVG Version: 6.00 Build 0)  -->
<svg version="1.1" id="Camada_1" xmlns="http://www.w3.org/2000/svg" xmlns:xlink="http://www.w3.org/1999/xlink" x="0px" y="0px"
	 viewBox="0 0 128.25 112.9" style="enable-background:new 0 0 128.25 112.9;" xml:space="preserve">
<style type="text/css">
	.st0{display:none;}
	.st1{display:inline;fill:#D06AA3;}
	.st2{display:inline;fill:#EF7BBC;}
	.st3{display:inline;fill:#CE69A1;}
	.st4{fill:#FFFFFF;}
</style>
<g class="st0">
	<path class="st1" d="M167.89-142.44c0,0-5.79-8.26-15.73-8.52v-0.01c-0.08,0-0.16,0.01-0.24,0.01c-0.08,0-0.16-0.01-0.24-0.01v0.01
		c-9.95,0.26-15.73,8.52-15.73,8.52l-3.2,21.33c0,0,0.38-2.53,2.99-10.03c0.9-2.59,3.14-4.54,5.69-5.98c6.49-3.66,14.5-3.66,20.99,0
		c2.55,1.44,4.79,3.39,5.69,5.98c2.61,7.49,2.99,10.03,2.99,10.03L167.89-142.44z"/>
	<path class="st2" d="M191.4-38.59c-33.7-12.83-59.09-65.46-62.08-76.55c-2.99-11.09,6.61-27.3,6.61-27.3s-3.56,21.73,24.14,51.93
		c27.7,30.2,41.99,32.97,41.99,32.97L191.4-38.59z"/>
	<path class="st3" d="M163.4-86.96c-1.09-1.14-2.19-2.32-3.32-3.56c-0.47-0.51-0.93-1.02-1.39-1.53c-4.21,2.03-7.72,5.38-9.6,9.7
		c-0.5,1.15-0.86,2.34-1.11,3.55c2.31,3.47,4.79,6.95,7.43,10.36C158.69-74.33,161.36-80.54,163.4-86.96z"/>
	<path class="st2" d="M112.38-38.66c33.7-12.83,59.09-65.46,62.08-76.55c2.99-11.09-6.61-27.3-6.61-27.3s3.56,21.73-24.14,51.93
		c-27.7,30.2-41.99,32.97-41.99,32.97L112.38-38.66z"/>
</g>
<g>
	<path class="st4" d="M61.97,9.11c2.19,0,4.2,0.29,6.01,0.87c-0.03-1.73-0.59-3.22-1.68-4.46c-1.14-1.27-2.51-1.91-4.12-1.91
		c-1.61,0-2.96,0.62-4.06,1.85c-1.03,1.16-1.56,2.62-1.62,4.36C58.17,9.36,59.98,9.11,61.97,9.11"/>
	<path class="st4" d="M121.06,97.13c-0.2-0.18-0.43-0.32-0.65-0.47c-0.64,2.05-1.63,3.96-3.03,5.7c-1.68,2.14-3.71,3.7-6.08,4.72
		l5.08-0.08c1.8,0,3.34-0.57,4.62-1.7c1.27-1.14,1.91-2.51,1.91-4.11C122.91,99.58,122.28,98.22,121.06,97.13"/>
	<path class="st4" d="M41.19,101.85c0,1.61-0.57,2.98-1.7,4.12c-1.13,1.13-2.51,1.7-4.11,1.7H23.86c-5.78,0-10.24-2.01-13.38-6.03
		c-2.63-3.36-3.95-7.13-3.95-11.3V16.14c0-1.68,0.55-3.07,1.65-4.17c1.1-1.09,2.45-1.65,4.06-1.65c1.61,0,2.98,0.57,4.11,1.7
		c1.13,1.14,1.7,2.51,1.7,4.12v74.08c0,1.69,0.42,3.07,1.26,4.16c0.84,1.1,2.36,1.65,4.55,1.65h11.52c1.61,0,2.98,0.57,4.11,1.7
		C40.62,98.87,41.19,100.24,41.19,101.85"/>
	<path class="st4" d="M79.3,27.66v62.67c0,4.24-1.28,7.97-3.84,11.19c-3.22,4.09-7.71,6.14-13.49,6.14
		c-5.78,0-10.24-2.01-13.38-6.03c-2.63-3.36-3.95-7.13-3.95-11.3V27.66c0-4.31,1.28-8.08,3.84-11.3c3.14-4.02,7.64-6.03,13.49-6.03
		c5.78,0,10.24,2.02,13.38,6.03C77.98,19.65,79.3,23.42,79.3,27.66 M67.67,27.66c0-1.61-0.37-2.89-1.1-3.84
		c-1.02-1.31-2.56-1.97-4.61-1.97c-2.12,0-3.62,0.56-4.5,1.7c-0.88,1.14-1.32,2.51-1.32,4.11v62.56c0,1.69,0.42,3.07,1.26,4.16
		c0.84,1.1,2.36,1.65,4.55,1.65c2.04,0,3.58-0.62,4.61-1.87c0.73-0.95,1.1-2.23,1.1-3.84V27.66z"/>
	<path class="st4" d="M120.54,42.39v47.93c0,4.25-1.28,7.97-3.84,11.19c-3.22,4.09-7.71,6.14-13.49,6.14
		c-5.78,0-10.24-2.01-13.38-6.03c-2.63-3.36-3.95-7.13-3.95-11.3v-30.6c0-4.31,1.28-8.08,3.84-11.3c3.14-4.02,7.64-6.03,13.49-6.03
		h5.7c0-0.25-0.01-15.23-0.03-15.46c-0.12-1.74-0.68-3-1.68-3.77c-1.14-0.88-2.47-1.32-4-1.32h-5.82c-1.53,0-2.89-0.55-4.06-1.65
		c-1.17-1.1-1.76-2.45-1.76-4.06c0-1.68,0.55-3.07,1.64-4.17c1.1-1.1,2.48-1.65,4.17-1.65h5.82c4.24,0,7.97,1.28,11.19,3.84
		c3.92,3.08,5.97,7.34,6.13,12.76C120.53,27.17,120.54,42.15,120.54,42.39 M108.91,90.33V53.91h-5.7c-2.12,0-3.62,0.57-4.5,1.7
		c-0.88,1.13-1.32,2.51-1.32,4.11v30.5c0,1.69,0.42,3.07,1.26,4.17c0.84,1.1,2.35,1.65,4.55,1.65c2.04,0,3.58-0.62,4.61-1.87
		C108.54,93.22,108.91,91.94,108.91,90.33"/>
</g>
</svg>
