<?xml version="1.0" encoding="utf-8"?>
<!-- Generator: Adobe Illustrator 26.2.1, SVG Export Plug-In . SVG Version: 6.00 Build 0)  -->
<svg version="1.1" id="Camada_1" xmlns="http://www.w3.org/2000/svg" xmlns:xlink="http://www.w3.org/1999/xlink" x="0px" y="0px"
	 viewBox="0 0 128.2 112.9" style="enable-background:new 0 0 128.2 112.9;" xml:space="preserve">
<style type="text/css">
	.st0{display:none;}
	.st1{display:inline;fill:#D06AA3;}
	.st2{display:inline;fill:#EF7BBC;}
	.st3{display:inline;fill:#CE69A1;}
	.st4{fill:#0163D7;}
</style>
<g class="st0">
	<path class="st1" d="M167.9-142.4c0,0-5.8-8.3-15.7-8.5v0c-0.1,0-0.2,0-0.2,0s-0.2,0-0.2,0v0c-9.9,0.3-15.7,8.5-15.7,8.5l-3.2,21.3
		c0,0,0.4-2.5,3-10c0.9-2.6,3.1-4.5,5.7-6c6.5-3.7,14.5-3.7,21,0c2.6,1.4,4.8,3.4,5.7,6c2.6,7.5,3,10,3,10L167.9-142.4z"/>
	<path class="st2" d="M191.4-38.6c-33.7-12.8-59.1-65.5-62.1-76.6c-3-11.1,6.6-27.3,6.6-27.3s-3.6,21.7,24.1,51.9s42,33,42,33
		L191.4-38.6z"/>
	<path class="st3" d="M163.4-87c-1.1-1.1-2.2-2.3-3.3-3.6c-0.5-0.5-0.9-1-1.4-1.5c-4.2,2-7.7,5.4-9.6,9.7c-0.5,1.2-0.9,2.3-1.1,3.6
		c2.3,3.5,4.8,6.9,7.4,10.4C158.7-74.3,161.4-80.5,163.4-87z"/>
	<path class="st2" d="M112.4-38.7c33.7-12.8,59.1-65.5,62.1-76.6c3-11.1-6.6-27.3-6.6-27.3s3.6,21.7-24.1,51.9s-42,33-42,33
		L112.4-38.7z"/>
</g>
<g>
	<path class="st4" d="M62,9.1c2.2,0,4.2,0.3,6,0.9c0-1.7-0.6-3.2-1.7-4.5c-1.1-1.3-2.5-1.9-4.1-1.9s-3,0.6-4.1,1.8
		c-1,1.2-1.6,2.6-1.6,4.4C58.2,9.4,60,9.1,62,9.1"/>
	<path class="st4" d="M121.1,97.1c-0.2-0.2-0.4-0.3-0.7-0.5c-0.6,2.1-1.6,4-3,5.7c-1.7,2.1-3.7,3.7-6.1,4.7l5.1-0.1
		c1.8,0,3.3-0.6,4.6-1.7c1.3-1.1,1.9-2.5,1.9-4.1C122.9,99.6,122.3,98.2,121.1,97.1"/>
	<path class="st4" d="M41.2,101.8c0,1.6-0.6,3-1.7,4.1c-1.1,1.1-2.5,1.7-4.1,1.7H23.9c-5.8,0-10.2-2-13.4-6
		c-2.6-3.4-3.9-7.1-3.9-11.3V16.1c0-1.7,0.6-3.1,1.6-4.2c1.1-1.1,2.4-1.6,4.1-1.6s3,0.6,4.1,1.7c1.1,1.1,1.7,2.5,1.7,4.1v74.1
		c0,1.7,0.4,3.1,1.3,4.2c0.8,1.1,2.4,1.7,4.5,1.7h11.5c1.6,0,3,0.6,4.1,1.7C40.6,98.9,41.2,100.2,41.2,101.8"/>
	<path class="st4" d="M79.3,27.7v62.7c0,4.2-1.3,8-3.8,11.2c-3.2,4.1-7.7,6.1-13.5,6.1s-10.2-2-13.4-6c-2.6-3.4-4-7.1-4-11.3V27.7
		c0-4.3,1.3-8.1,3.8-11.3c3.1-4,7.6-6,13.5-6c5.8,0,10.2,2,13.4,6C78,19.6,79.3,23.4,79.3,27.7 M67.7,27.7c0-1.6-0.4-2.9-1.1-3.8
		c-1-1.3-2.6-2-4.6-2c-2.1,0-3.6,0.6-4.5,1.7c-0.9,1.1-1.3,2.5-1.3,4.1v62.6c0,1.7,0.4,3.1,1.3,4.2c0.8,1.1,2.4,1.7,4.5,1.7
		c2,0,3.6-0.6,4.6-1.9c0.7-0.9,1.1-2.2,1.1-3.8L67.7,27.7L67.7,27.7z"/>
	<path class="st4" d="M120.5,42.4v47.9c0,4.2-1.3,8-3.8,11.2c-3.2,4.1-7.7,6.1-13.5,6.1s-10.2-2-13.4-6c-2.6-3.4-3.9-7.1-3.9-11.3
		V59.7c0-4.3,1.3-8.1,3.8-11.3c3.1-4,7.6-6,13.5-6h5.7c0-0.2,0-15.2,0-15.5c-0.1-1.7-0.7-3-1.7-3.8c-1.1-0.9-2.5-1.3-4-1.3h-5.8
		c-1.5,0-2.9-0.5-4.1-1.6s-1.8-2.5-1.8-4.1c0-1.7,0.6-3.1,1.6-4.2c1.1-1.1,2.5-1.6,4.2-1.6h5.8c4.2,0,8,1.3,11.2,3.8
		c3.9,3.1,6,7.3,6.1,12.8C120.5,27.2,120.5,42.2,120.5,42.4 M108.9,90.3V53.9h-5.7c-2.1,0-3.6,0.6-4.5,1.7s-1.3,2.5-1.3,4.1v30.5
		c0,1.7,0.4,3.1,1.3,4.2c0.8,1.1,2.3,1.7,4.6,1.7c2,0,3.6-0.6,4.6-1.9C108.5,93.2,108.9,91.9,108.9,90.3"/>
</g>
</svg>
