<svg width="156" height="40" viewBox="0 0 156 40" fill="none" xmlns="http://www.w3.org/2000/svg">
<g clip-path="url(#clip0_1_24)">
<path d="M32.2224 20.1462C32.2224 20.24 32.2309 21.784 32.2309 21.8479C32.2309 22.0697 32.0906 23.8227 31.9205 25.0852C31.8738 25.4306 31.8185 25.7761 31.7207 26.1173C31.555 26.6505 31.4019 27.158 31.2701 27.6442C31.1341 28.1304 30.9683 28.6081 30.7685 29.0773C30.1989 30.3952 29.4974 31.5852 28.66 32.6515C27.8225 33.7177 26.8193 34.6262 25.6502 35.3769C24.9828 35.8162 24.2856 36.1915 23.5672 36.5071C22.8488 36.8228 22.0708 37.1043 21.2334 37.3516C20.8975 37.4455 20.5532 37.4924 20.2046 37.5649C19.7285 37.663 18.4702 37.8336 18.1726 37.872C18.0366 37.889 14.963 37.9658 14.6612 37.9658H2.97077C2.40113 37.9658 1.92501 37.9402 1.54241 37.8933C1.15556 37.8464 0.883494 37.6331 0.713451 37.2578C0.611425 37.0062 0.568915 36.6223 0.585919 36.1062C0.602923 35.5901 0.611425 35.1594 0.611425 34.8139V7.2186C0.611425 6.84327 0.602923 6.44234 0.585919 6.0201C0.568915 5.59785 0.645434 5.26091 0.811225 5.00927C0.943008 4.8216 1.19382 4.66379 1.56366 4.5401C1.63168 4.51025 1.69545 4.50172 1.76347 4.51451C1.83148 4.53157 1.89525 4.52304 1.96326 4.48892H15.4604C15.6602 4.48892 18.7975 4.58702 19.5244 4.77042C20.1238 4.83866 23.3164 5.57226 24.9445 6.70252C26.0073 7.44038 27.7205 8.7711 28.8343 9.96533C29.0511 10.1999 30.2286 12.051 30.5645 12.7846C30.9003 13.5224 31.1979 14.2987 31.4657 15.1133C31.6315 15.5228 31.6867 15.9536 31.793 16.3843C32.0651 17.4762 32.2224 20.1462 32.2224 20.1462ZM24.4939 21.6517C24.4939 21.3063 24.2856 19.4254 24.2686 19.114C24.2516 18.8026 24.0603 17.5316 23.9923 17.3738C23.8265 16.8748 23.665 16.3929 23.5162 15.9408C23.3674 15.4887 23.1548 15.0536 22.887 14.6484C22.3854 13.8978 21.8072 13.2452 21.1568 12.6993C20.5064 12.1533 19.7115 11.6884 18.772 11.3131C18.4702 11.2193 17.2671 10.9079 16.9653 10.8439C16.6975 10.8141 15.5369 10.6307 14.759 10.6094H10.2443C9.11781 10.6563 8.73947 10.9719 8.63744 11.1254C8.50141 11.2832 8.43764 11.5008 8.43764 11.7823C8.43764 12.0638 8.43764 12.3794 8.43764 12.7206C8.43764 13.13 8.42914 13.5523 8.41214 13.9916C8.39513 14.4309 8.38663 14.8702 8.38663 15.3095L8.43764 30.0711C8.43764 30.2929 8.44615 30.5019 8.46315 30.7066C8.48015 30.9113 8.52266 31.0904 8.58643 31.2482C8.78623 31.6236 9.17308 31.8198 9.73847 31.8368C10.3081 31.8539 10.8948 31.8624 11.4942 31.8624C12.7992 31.8624 14.1213 31.8539 15.4562 31.8368C16.7952 31.8198 17.9303 31.6406 18.8698 31.2952C20.1068 30.826 21.0846 30.199 21.803 29.4142C22.5214 28.6295 23.1336 27.6613 23.6352 26.5012C23.767 26.2495 23.869 25.968 23.937 25.6567C24.0051 25.3453 24.0858 25.0297 24.1878 24.7184C24.1921 24.7098 24.4939 21.9972 24.4939 21.6517Z" fill="white"/>
<path d="M51.7688 11.4581C52.0706 11.5434 52.3214 11.6671 52.5042 11.8889C52.721 12.1448 52.8316 12.5798 52.8316 13.2025C52.8316 13.8252 52.8316 14.3712 52.8316 14.8531C52.8316 15.2029 52.8401 15.6038 52.8571 16.0474C52.8741 16.4952 52.8103 16.8449 52.6658 17.1009C52.5212 17.3226 52.3129 17.4676 52.0409 17.5316C51.7688 17.5956 51.4585 17.6255 51.1141 17.6255C50.7698 17.6255 48.2531 17.6297 47.4965 17.8643C46.9141 18.0221 45.0266 18.8794 44.3974 19.5831C44.2146 19.8391 43.3602 20.9139 42.9563 21.9972C42.8543 22.2659 42.782 22.5303 42.7098 22.7862C42.6375 23.008 42.3484 26.0747 42.3824 26.3476C42.4164 26.6206 42.4377 30.1947 42.4377 30.1947V34.2551C42.4377 34.6689 42.4164 35.0527 42.3824 35.4025C42.3442 35.7522 42.2379 36.038 42.0551 36.264C41.9828 36.3578 41.8638 36.4303 41.7023 36.4773C41.5407 36.5242 41.3664 36.5668 41.1836 36.5967H40.9158C40.733 36.6308 40.5332 36.6436 40.3164 36.6436C40.0996 36.6436 39.8998 36.6436 39.717 36.6436H37.3789C36.9028 36.6649 36.2184 36.5967 35.9633 36.5967C35.602 36.554 35.4574 36.4986 35.2746 36.4517C35.0918 36.4048 34.8113 35.7266 34.79 35.4238C34.773 35.121 34.7645 34.8096 34.7645 34.494V31.244V17.7662V14.2304C34.7645 13.9105 34.7645 13.6035 34.7645 13.2964C34.7645 12.9935 34.8368 12.7462 34.9813 12.5542C35.1641 12.2983 35.4362 12.1405 35.7975 12.0765C36.1589 12.0126 36.5967 11.9827 37.1026 11.9827H39.8785C40.3122 11.9827 40.6948 12.0083 41.0221 12.0552C41.3494 12.1021 41.6002 12.2557 41.783 12.5073C41.8935 12.6651 41.9531 12.8912 41.9743 13.1769C41.9913 13.4627 42.1571 14.5333 42.2464 14.755C42.3357 14.9768 42.51 15.0877 42.7608 15.0877C42.9266 15.0664 43.1221 14.9598 43.1944 14.8958C43.4112 14.738 45.813 12.7931 46.1574 12.6012C46.5017 12.4092 46.8546 12.2344 47.2159 12.0765C48.2829 11.6116 49.6347 11.4325 49.7878 11.4155C50.2809 11.3685 51.2374 11.3088 51.7688 11.4581Z" fill="white"/>
<path d="M61.61 13.0831C61.593 12.7973 61.5122 12.5756 61.3677 12.4135C61.2572 12.2557 61.1126 12.1576 60.9341 12.1277C60.7513 12.0979 60.5515 12.0467 60.3347 11.9827H59.9011C59.7183 11.9528 59.493 11.9443 59.2209 11.9571C58.9488 11.9742 58.7065 11.9827 58.4855 11.9827H55.7648C55.6925 12.0168 55.5905 12.0211 55.4672 12.0083C55.3397 11.9912 55.2419 11.9998 55.1696 12.0339C54.77 12.0979 54.464 12.2429 54.2429 12.4647C54.0984 12.6566 54.0261 12.9125 54.0261 13.2281C54.0261 13.548 54.0261 13.8636 54.0261 14.1835V20.4106V34.012V34.6347C54.0261 34.9546 54.0346 35.2574 54.0516 35.5432C54.0686 35.829 54.1494 36.0507 54.2939 36.2128C54.4044 36.3706 54.549 36.4687 54.7275 36.4986C54.9103 36.5284 55.1101 36.5796 55.3269 36.6436H55.7605C55.9433 36.6734 56.1686 36.682 56.4407 36.6692C56.7128 36.6521 56.9551 36.6436 57.1761 36.6436H59.8968C59.9691 36.6095 60.0711 36.6052 60.1944 36.618C60.3219 36.6351 60.4197 36.6265 60.492 36.5924C60.8916 36.5284 61.1976 36.3834 61.4187 36.1616C61.5632 35.9697 61.6355 35.7138 61.6355 35.3982C61.6355 35.0783 61.6355 34.7627 61.6355 34.4428V28.2157V14.6143V13.9916C61.6398 13.6717 61.6313 13.3689 61.61 13.0831Z" fill="white"/>
<path d="M82.8186 11.3643C84.4382 11.4197 85.8283 11.6927 86.9846 12.1747C88.4342 12.7803 89.5778 13.6717 90.411 14.8489C90.666 15.1986 91.3972 16.7341 91.58 17.907C91.6268 18.2098 91.7331 18.615 91.7713 18.9562C91.8436 19.404 91.8819 19.8647 91.8819 20.3424C91.8819 20.8201 91.8819 21.2807 91.8819 21.7285V25.9808V33.722C91.8819 34.3277 91.8733 34.9077 91.8563 35.4665C91.8351 36.0252 91.5758 36.3834 91.0657 36.5413C90.8488 36.6052 90.5938 36.6351 90.3047 36.6351C90.0156 36.6351 89.7223 36.6351 89.4332 36.6351H86.4958C86.0621 36.6351 85.671 36.6095 85.3267 36.5626C84.9824 36.5157 84.7188 36.3792 84.536 36.1574C84.3915 35.9655 84.3107 35.7181 84.2937 35.4153C84.2724 35.1124 84.2682 34.7883 84.2682 34.4343V31.0904V23.9762C84.2682 22.7991 84.2129 21.7072 84.1067 20.7049C83.9961 19.7026 83.673 18.8496 83.1289 18.1501C82.6188 17.5146 81.8791 17.0668 80.8971 16.8108C79.6048 16.5038 78.1212 16.717 78.0149 16.717C77.9043 16.717 77.7981 16.7341 77.6875 16.7639C76.8543 16.9559 76.1827 17.2118 75.6768 17.5274C74.5162 18.261 73.8276 19.3273 73.6108 20.7305C73.394 22.1337 73.2834 23.7075 73.2834 25.4605V31.4317V34.3447C73.2834 34.6305 73.2834 34.9163 73.2834 35.2063C73.2834 35.492 73.2282 35.7309 73.1219 35.9228C72.9391 36.2726 72.65 36.4815 72.2504 36.5455C71.8508 36.6095 71.3619 36.6394 70.7796 36.6394H68.0589C67.6593 36.6394 67.2597 36.6223 66.8643 36.5924C66.4647 36.5626 66.1756 36.4474 65.9929 36.2598C65.7378 35.974 65.6188 35.5603 65.64 35.0186C65.657 34.4769 65.6655 33.9651 65.6655 33.4874V26.9874V16.4739V14.0385C65.6655 13.6888 65.674 13.3689 65.691 13.0831C65.708 12.7974 65.8101 12.5585 65.9886 12.3666C66.0609 12.2728 66.1799 12.2003 66.3414 12.1533C66.503 12.1064 66.6773 12.068 66.8601 12.0339H67.1321C67.3149 12.0041 67.502 11.987 67.7018 11.987C67.9016 11.987 68.0929 11.987 68.2714 11.987H70.5585C70.8476 11.987 71.1281 11.9955 71.4002 12.0126C71.6723 12.0296 71.9146 12.068 72.1356 12.132C72.3907 12.2258 72.5565 12.3751 72.65 12.5628C72.7818 12.823 72.9306 13.757 73.0029 13.8509C73.0751 14.0129 73.2282 14.256 73.4365 14.2816C73.8361 14.3157 74.0911 14.1793 74.3845 13.9532C74.699 13.7101 74.9839 13.5054 75.2729 13.258C76.2507 12.6225 77.2964 12.132 78.4952 11.7482C78.8226 11.6543 80.2169 11.4795 80.6165 11.4155C81.0714 11.3515 82.4105 11.3515 82.8186 11.3643Z" fill="white"/>
<path d="M97.8078 2.56961H101.778C102.178 2.56961 102.539 2.58667 102.867 2.61653C103.194 2.65065 103.445 2.74448 103.628 2.90229C103.917 3.18805 104.053 3.65295 104.036 4.28845C104.019 4.92822 104.01 5.51681 104.01 6.05421V14.1281V17.0411C104.01 17.2629 104.138 19.2334 104.172 19.4083C104.206 19.5831 104.316 19.7026 104.499 19.7666C104.61 19.8305 104.754 19.8391 104.933 19.7921C105.115 19.7452 105.239 19.6898 105.311 19.6258C105.672 19.404 106.816 18.3036 107.105 18.0477C107.394 17.7918 110.187 15.2455 110.37 15.0835C110.37 15.0835 112.164 13.4926 112.274 13.3646C112.563 13.0447 112.882 12.7675 113.226 12.5287C113.571 12.2898 113.996 12.1235 114.506 12.0254C114.689 11.9955 116.011 11.9785 116.194 11.9785H120.708C120.891 12.0424 121.07 12.0808 121.252 12.0979C121.435 12.1149 121.559 12.1874 121.631 12.3111C121.703 12.405 121.712 12.5329 121.656 12.695C121.601 12.8528 121.537 12.968 121.465 13.0277C121.248 13.3476 120.976 13.6248 120.649 13.8636C120.322 14.1025 120.015 14.3499 119.722 14.6058C119.467 14.8275 118.489 15.7062 118.2 15.8938C118.017 16.0218 116.479 17.3909 116.296 17.5188L114.23 19.3358C113.975 19.5277 113.158 20.2741 112.98 20.53C112.908 20.6238 112.835 20.7433 112.763 20.8883C112.691 21.0333 112.691 21.1826 112.763 21.3404C112.835 21.6901 112.971 21.9801 113.171 22.2019C113.371 22.4237 113.562 22.6626 113.741 22.9185C114.03 23.2682 114.293 23.6179 114.532 23.9677C114.765 24.3174 115.029 24.6672 115.322 25.0169L121.031 32.6131C121.393 33.0609 121.746 33.5045 122.094 33.9523C122.439 34.4002 122.753 34.8437 123.046 35.2916C123.157 35.4494 123.216 35.6413 123.238 35.8631C123.255 36.0849 123.174 36.2597 122.991 36.3877C122.847 36.4517 122.702 36.4815 122.558 36.4815C122.413 36.4815 122.251 36.5156 122.069 36.5754C121.924 36.6095 121.763 36.6137 121.58 36.601C121.397 36.5839 121.218 36.5754 121.036 36.5754H118.914C118.332 36.5754 117.643 36.5839 116.848 36.601C116.049 36.618 115.45 36.5455 115.054 36.3877C114.655 36.2299 114.31 35.9356 114.021 35.5048C113.732 35.074 113.46 34.6859 113.205 34.3362C112.589 33.4746 111.972 32.6088 111.356 31.7302C110.74 30.8558 110.123 29.9858 109.507 29.1242C109.218 28.7105 108.937 28.2968 108.665 27.8831C108.393 27.4693 108.095 27.0727 107.768 26.6888C107.696 26.595 107.568 26.467 107.385 26.305C107.203 26.1472 107.003 26.096 106.786 26.16C106.459 26.2239 106.216 26.3178 106.051 26.4457C105.889 26.5737 105.715 26.7187 105.536 26.8765C105.247 27.0684 104.975 27.2902 104.72 27.5461C104.465 27.802 104.265 28.1048 104.121 28.4546C104.048 28.7105 104.01 28.9877 104.01 29.2905C104.01 29.5934 104.01 29.8877 104.01 30.1734V33.1377C104.01 33.3595 104.019 33.6068 104.036 33.8798C104.053 34.1528 104.061 34.43 104.061 34.7158C104.061 35.0015 104.044 35.266 104.006 35.5048C103.968 35.7437 103.895 35.9271 103.789 36.055C103.645 36.2469 103.415 36.3834 103.109 36.4602C102.799 36.5412 102.446 36.5882 102.046 36.6052C101.647 36.6223 101.23 36.6223 100.796 36.6052C100.363 36.5882 99.9801 36.5796 99.6528 36.5796C99.2532 36.5796 98.8196 36.5882 98.3477 36.6052C97.8759 36.6223 97.4975 36.5796 97.2042 36.4858C96.7323 36.328 96.4773 36.0422 96.4433 35.6242C96.405 35.2105 96.388 34.7328 96.388 34.1912V28.7062V9.54734V5.10309C96.388 4.75335 96.3795 4.38655 96.3625 4.00269C96.3455 3.61883 96.4092 3.31601 96.5538 3.09422C96.6983 2.87243 96.9534 2.71036 97.3147 2.61653C97.387 2.61653 97.4678 2.608 97.5613 2.59094C97.6548 2.57814 97.7356 2.56961 97.8078 2.56961Z" fill="white"/>
<path d="M58.2942 10.5241C60.6138 10.5241 62.4942 8.63741 62.4942 6.31012C62.4942 3.98283 60.6138 2.09619 58.2942 2.09619C55.9745 2.09619 54.0941 3.98283 54.0941 6.31012C54.0941 8.63741 55.9745 10.5241 58.2942 10.5241Z" fill="#76B82A"/>
<path d="M150.87 33.0097C150.525 32.9713 150.113 32.9543 149.641 32.9543C149.641 32.9543 148.285 32.9372 148.153 32.8988C147.766 32.8221 147.388 32.7368 147.022 32.6429C146.657 32.5491 146.364 32.387 146.151 32.161C145.675 31.6321 145.407 31.0179 145.343 30.3142C145.28 29.6147 145.246 28.7915 145.246 27.8447V21.1954V17.6724C145.288 17.4847 145.288 17.2757 145.246 17.0497C145.203 16.8236 145.246 7.9266 145.246 7.62378V7.00107C145.203 6.8134 145.19 6.59588 145.211 6.34851C145.233 6.10113 145.246 5.88361 145.246 5.69595V3.14114C145.246 2.8767 145.246 2.61227 145.246 2.34783C145.246 2.08339 145.203 1.85734 145.118 1.66541C144.901 1.24743 144.544 1.01285 144.051 0.957403C143.554 0.901956 142.984 0.872101 142.338 0.872101H138.006C137.921 0.910487 137.802 0.919017 137.649 0.901956C137.496 0.884896 137.377 0.893426 137.292 0.931812C136.862 1.04697 136.535 1.29008 136.323 1.66968C136.237 1.89573 136.195 2.18149 136.195 2.5227C136.195 2.86391 136.195 3.18379 136.195 3.48662V7.0096C136.195 7.35081 136.182 7.69202 136.161 8.03323C136.14 8.37444 136.063 8.67726 135.936 8.9417C135.719 9.32129 135.332 9.53881 134.771 9.59426C134.21 9.6497 133.606 9.67956 132.96 9.67956C132.743 9.67956 132.552 9.67103 132.378 9.6497C132.203 9.63264 132.033 9.65823 131.859 9.73501C131.213 9.88855 130.847 10.17 130.758 10.588C130.673 11.006 130.63 11.5519 130.63 12.2344V13.4286C130.715 13.7698 130.8 14.0513 130.89 14.2816C130.975 14.5077 131.191 14.6783 131.536 14.7934C132.054 14.9854 132.675 15.0408 133.411 14.964C134.142 14.8873 134.745 14.947 135.221 15.1346C135.651 15.2882 135.953 15.6251 136.127 16.1583C136.212 16.3843 136.246 16.6317 136.225 16.8961C136.203 17.1606 136.191 17.425 136.191 17.6894V20.7006V29.1626V31.3207C136.152 32.4979 136.361 34.2935 136.45 34.4428C136.752 35.3129 137.202 36.1105 137.806 36.827C137.891 36.9038 138.478 37.5563 139.294 37.9061C139.681 38.098 140.093 38.2644 140.523 38.4179C140.952 38.5714 141.407 38.7037 141.879 38.8146C142.138 38.8529 142.397 38.8913 142.657 38.9297C142.916 38.9681 143.196 39.0065 143.498 39.0449C143.715 39.0833 143.953 39.1003 144.208 39.1003C144.463 39.1003 145.632 39.1558 145.632 39.1558C145.802 39.1941 148 39.1941 148.217 39.1558C148.68 39.1771 149.888 39.2325 150.865 38.9852C151.567 38.806 151.911 38.3113 151.932 37.6502C151.954 36.9891 151.962 36.2598 151.962 35.4622C151.962 35.0826 151.962 34.7158 151.962 34.3532C151.962 33.995 151.877 33.7007 151.703 33.4746C151.495 33.1974 151.214 33.0439 150.87 33.0097Z" fill="white"/>
<path d="M155.418 7.81143C155.418 7.81143 148.4 7.66641 147.044 7.99909C145.688 8.33177 142.665 9.16773 141.347 13.339C141.22 13.9575 142.674 16.1241 147.494 16.299C152.311 16.4781 155.274 11.6969 155.418 7.81143Z" fill="#76B82A"/>
</g>
<defs>
<clipPath id="clip0_1_24">
<rect width="156" height="40" fill="white"/>
</clipPath>
</defs>
</svg>
