<svg width="150" height="94" viewBox="0 0 150 94" fill="none" xmlns="http://www.w3.org/2000/svg">
<g clip-path="url(#clip0_12_14)">
<path d="M114.108 87.1261H114.786C114.955 87.1261 115.124 87.1261 115.294 87.1261C115.463 87.1261 115.632 87.1261 115.801 87.1261C115.971 87.1261 116.14 86.9543 116.479 86.9543C116.648 86.9543 116.817 86.7824 117.156 86.6106C117.325 86.4387 117.494 86.2669 117.664 86.095C117.833 85.9232 117.833 85.5795 117.833 85.2358C117.833 84.7203 117.664 84.3766 117.325 84.2047C116.987 84.0329 116.648 83.861 116.14 83.861C115.801 83.861 115.632 83.861 115.294 83.861C115.124 83.861 114.955 83.861 114.786 83.861L114.108 87.1261ZM113.093 91.9378H113.262C113.431 91.9378 113.431 91.9378 113.601 91.9378C113.77 91.9378 113.939 91.9378 113.939 91.9378C114.108 91.9378 114.278 91.9378 114.278 91.9378C114.616 91.9378 114.786 91.9378 115.124 91.766C115.463 91.766 115.632 91.5941 115.971 91.4223C116.14 91.2504 116.309 91.0786 116.479 90.9067C116.648 90.7349 116.648 90.3912 116.648 90.0475C116.648 89.7038 116.648 89.532 116.479 89.3601C116.309 89.1883 116.14 89.0164 115.971 89.0164C115.801 88.8446 115.632 88.8446 115.294 88.8446C115.124 88.8446 114.786 88.8446 114.447 88.8446H113.431L113.093 91.9378ZM113.093 82.3144C113.262 82.3144 113.601 82.3144 113.77 82.1426C114.108 82.1426 114.278 82.1426 114.616 82.1426C114.955 82.1426 115.124 82.1426 115.463 82.1426C115.801 82.1426 116.14 82.1426 116.309 82.1426C116.817 82.1426 117.325 82.1426 117.664 82.3144C118.172 82.4863 118.51 82.6581 118.68 82.83C119.018 83.0018 119.187 83.3455 119.357 83.6892C119.526 84.0329 119.695 84.3766 119.695 84.8921C119.695 85.2358 119.695 85.5795 119.526 85.9232C119.357 86.2669 119.187 86.6106 119.018 86.7824C118.849 87.1261 118.51 87.298 118.172 87.4698C117.833 87.6417 117.494 87.8135 117.156 87.8135C117.325 87.8135 117.494 87.9854 117.833 87.9854C118.002 88.1572 118.172 88.329 118.341 88.5009C118.51 88.6727 118.68 88.8446 118.68 89.1883C118.849 89.3601 118.849 89.7038 118.849 90.0475C118.849 90.7349 118.68 91.4223 118.51 91.766C118.172 92.2815 117.833 92.6252 117.494 92.9689C116.987 93.3126 116.479 93.4844 115.971 93.6563C115.294 93.8281 114.786 93.8281 114.108 93.8281C113.939 93.8281 113.77 93.8281 113.431 93.8281C113.093 93.8281 112.923 93.8281 112.585 93.8281C112.246 93.8281 111.908 93.8281 111.569 93.8281C111.23 93.8281 110.892 93.8281 110.722 93.6563L113.093 82.3144Z" fill="white"/>
<path d="M123.081 85.5796V87.1262C123.25 86.6106 123.589 86.2669 123.928 85.9233C124.266 85.5796 124.774 85.4077 125.282 85.4077C125.451 85.4077 125.79 85.4077 126.129 85.5796L125.621 87.298C125.451 87.298 125.451 87.298 125.282 87.298C125.113 87.298 125.113 87.298 124.944 87.298C124.436 87.298 124.097 87.4699 123.758 87.8136C123.42 88.1573 123.081 88.501 122.912 88.8446L121.896 94H119.865L121.558 85.7514H123.081V85.5796Z" fill="white"/>
<path d="M128.499 92.2815C128.668 92.2815 128.838 92.2815 129.007 92.1097C129.176 92.1097 129.345 91.9379 129.515 91.766C129.684 91.5942 129.853 91.4223 129.853 91.4223C130.023 91.2505 130.023 91.0786 130.192 91.0786L131.038 87.298C130.869 87.298 130.7 87.1262 130.7 87.1262C130.531 87.1262 130.361 87.1262 130.192 87.1262C129.853 87.1262 129.515 87.298 129.176 87.4698C128.838 87.6417 128.668 87.9854 128.33 88.3291C128.16 88.6728 127.991 89.1883 127.822 89.532C127.652 90.0475 127.652 90.5631 127.652 90.9068C127.652 91.2505 127.652 91.5942 127.822 91.766C127.991 92.1097 128.16 92.2815 128.499 92.2815ZM132.224 90.3912C132.054 90.7349 132.054 91.2505 132.054 91.5942C132.054 91.9378 132.054 92.4534 132.054 92.7971C132.054 92.9689 132.054 93.1408 132.054 93.3126C132.054 93.4845 132.054 93.6563 132.054 93.6563H130.531L130.361 92.2815C130.192 92.4534 130.023 92.6252 129.853 92.7971C129.684 92.9689 129.515 93.1408 129.176 93.3126C129.007 93.4845 128.668 93.6563 128.499 93.6563C128.33 93.8282 127.991 93.8282 127.652 93.8282C126.975 93.8282 126.467 93.6563 126.129 93.1408C125.79 92.6252 125.621 92.1097 125.621 91.2505C125.621 90.3912 125.79 89.7038 125.959 89.0165C126.129 88.3291 126.467 87.6417 126.806 87.1262C127.145 86.6106 127.822 86.0951 128.33 85.7514C129.007 85.4077 129.684 85.2358 130.531 85.2358C130.869 85.2358 131.377 85.2358 131.716 85.4077C132.224 85.4077 132.562 85.5795 133.07 85.7514L132.224 90.3912Z" fill="white"/>
<path d="M133.747 91.766C133.917 91.9378 134.255 91.9378 134.594 92.1097C134.932 92.2815 135.271 92.2815 135.61 92.2815C135.948 92.2815 136.287 92.2815 136.456 92.1097C136.625 91.9378 136.795 91.766 136.795 91.4223C136.795 91.2504 136.795 91.0786 136.625 90.9067C136.456 90.7349 136.287 90.563 136.117 90.3912C135.948 90.2194 135.779 90.0475 135.44 89.8757C135.271 89.7038 134.932 89.532 134.763 89.3601C134.594 89.1883 134.424 89.0164 134.255 88.6727C134.086 88.329 134.086 88.1572 134.086 87.6417C134.086 87.298 134.086 86.9543 134.255 86.6106C134.424 86.2669 134.594 86.095 134.763 85.7514C134.932 85.5795 135.271 85.4077 135.61 85.2358C135.948 85.064 136.456 85.064 136.795 85.064C137.472 85.064 137.98 85.064 138.318 85.2358C138.657 85.4077 138.996 85.4077 139.334 85.5795L138.826 87.1261C138.657 86.9543 138.318 86.9543 137.98 86.9543C137.641 86.9543 137.303 86.7824 136.964 86.7824C136.625 86.7824 136.287 86.7824 136.117 86.9543C135.948 87.1261 135.779 87.298 135.779 87.4698C135.779 87.6417 135.779 87.8135 135.948 87.9854C136.117 88.1572 136.287 88.329 136.456 88.329C136.625 88.5009 136.795 88.6727 137.133 88.8446C137.303 89.0164 137.641 89.1883 137.81 89.3601C137.98 89.532 138.149 89.8757 138.318 90.0475C138.488 90.3912 138.488 90.5631 138.488 91.0786C138.488 91.9378 138.149 92.6252 137.641 93.1407C137.133 93.6563 136.287 93.8281 135.271 93.8281C134.763 93.8281 134.255 93.8281 133.747 93.6563C133.239 93.4844 132.901 93.4844 132.731 93.3126L133.747 91.766Z" fill="white"/>
<path d="M142.043 83.1736C142.043 82.8299 142.212 82.4862 142.381 82.3144C142.551 82.1426 142.889 81.9707 143.228 81.9707C143.567 81.9707 143.905 82.1426 144.074 82.3144C144.244 82.4862 144.413 82.8299 144.413 83.1736C144.413 83.5173 144.244 83.861 144.074 84.0329C143.905 84.2047 143.567 84.3765 143.228 84.3765C142.889 84.3765 142.551 84.2047 142.381 84.0329C142.043 83.861 142.043 83.5173 142.043 83.1736ZM141.704 85.5795H143.736L142.043 93.8281H140.011L141.704 85.5795Z" fill="white"/>
<path d="M146.445 91.2504C146.445 91.5941 146.445 91.766 146.445 91.9378C146.445 92.1097 146.614 92.1097 146.783 92.1097C147.122 92.1097 147.291 92.1097 147.63 91.9378V93.3126C147.46 93.4844 147.122 93.4844 146.783 93.6563C146.445 93.6563 146.106 93.8281 145.767 93.8281C145.26 93.8281 144.921 93.6563 144.752 93.4844C144.582 93.3126 144.413 92.9689 144.413 92.4534C144.413 92.2815 144.413 91.9378 144.582 91.5941L146.614 82.1426H148.646L146.445 91.2504Z" fill="white"/>
<path fill-rule="evenodd" clip-rule="evenodd" d="M125.282 70.457C125.282 70.457 130.361 49.4917 131.038 46.2266C131.885 42.446 131.208 39.1809 127.991 39.1809C124.774 39.1809 122.912 42.1023 121.727 47.0859L115.632 70.457H98.702C103.273 49.3199 103.273 49.4917 103.95 46.2266C104.797 42.7897 104.966 39.1809 101.411 39.1809C98.1941 39.1809 96.3318 42.1023 94.9774 47.0859L89.0519 70.457H71.2754L82.9571 24.4021H100.734L98.8713 31.7915C101.411 27.1517 107.844 23.1992 112.077 23.1992C119.187 23.1992 121.727 26.9798 122.404 31.6197C125.959 27.6672 130.869 23.1992 137.641 23.1992C147.968 23.1992 151.693 31.276 149.661 40.212C147.122 51.5539 143.567 64.7861 141.874 70.457H125.282Z" fill="white"/>
<path fill-rule="evenodd" clip-rule="evenodd" d="M71.9526 39.0091C67.2122 37.2906 60.6095 36.2595 56.377 36.2595C51.8059 36.2595 49.7743 37.4625 49.7743 39.0091C49.7743 43.9926 69.7517 38.6654 69.7517 51.7257C69.7517 62.2084 61.1174 71.4881 42.3251 71.4881C35.7224 71.4881 29.289 69.2541 26.0723 67.7074L29.4583 54.819C33.6908 56.7093 40.6321 58.4277 45.2032 58.4277C50.4515 58.4277 52.1445 57.2248 52.1445 55.5063C52.1445 51.2102 31.9978 54.6471 31.9978 42.7897C31.9978 32.1352 40.9707 23.1992 59.5937 23.1992C64.5034 23.1992 70.9368 24.7458 75.6772 26.2925L71.9526 39.0091Z" fill="white"/>
<path fill-rule="evenodd" clip-rule="evenodd" d="M0 70.1134C1.693 63.7551 3.8939 55.1627 6.43341 45.0238C10.4966 29.5576 18.7923 22.5119 30.3047 24.0585L18.1151 70.1134H0Z" fill="white"/>
<path fill-rule="evenodd" clip-rule="evenodd" d="M40.4628 0C52.9911 0 53.8376 18.5594 32.3364 18.5594C16.4222 18.5594 12.1897 25.777 12.1897 25.777C12.1897 25.777 16.5915 0 40.4628 0Z" fill="#E3291C"/>
</g>
<defs>
<clipPath id="clip0_12_14">
<rect width="150" height="94" fill="white"/>
</clipPath>
</defs>
</svg>
