<?xml version="1.0" standalone="no"?>
<!DOCTYPE svg PUBLIC "-//W3C//DTD SVG 20010904//EN"
 "http://www.w3.org/TR/2001/REC-SVG-20010904/DTD/svg10.dtd">
<svg version="1.0" xmlns="http://www.w3.org/2000/svg"
 width="928.000000pt" height="928.000000pt" viewBox="0 0 928.000000 928.000000"
 preserveAspectRatio="xMidYMid meet">
<metadata>
Created by potrace 1.14, written by Peter Selinger 2001-2017
</metadata>
<g transform="translate(0.000000,928.000000) scale(0.100000,-0.100000)"
fill="#000000" stroke="none">
<path d="M4297 8766 c-146 -49 -246 -159 -296 -326 -12 -39 -21 -136 -14 -144
3 -3 15 -1 27 4 13 4 40 11 62 14 21 4 46 8 54 11 62 18 434 26 520 12 19 -4
49 -8 65 -11 32 -4 144 -32 170 -42 13 -5 14 2 10 52 -20 199 -164 386 -339
438 -69 21 -183 17 -259 -8z"/>
<path d="M418 8255 c-2 -1 -26 -5 -55 -8 -61 -6 -163 -54 -213 -100 -53 -49
-117 -150 -126 -199 -1 -5 -2 -9 -3 -10 -14 -17 -16 -482 -16 -3143 1 -2649 3
-3170 15 -3170 1 0 3 -16 6 -35 2 -19 14 -66 25 -105 11 -38 22 -74 23 -80 11
-37 28 -76 78 -178 60 -124 62 -127 70 -127 5 0 8 -6 8 -13 0 -8 10 -25 21
-38 12 -13 33 -42 47 -63 41 -66 205 -220 294 -278 156 -102 345 -176 492
-194 22 -3 52 -7 66 -11 14 -3 45 -7 70 -9 95 -6 1127 -5 1165 1 42 7 153 54
181 77 56 45 118 119 140 167 15 31 31 65 37 75 17 35 18 199 1 258 -9 29 -20
57 -25 62 -5 6 -9 16 -9 23 0 15 -16 36 -90 112 -59 61 -154 114 -225 127 -22
4 -269 8 -550 9 -514 2 -603 6 -662 30 -18 8 -33 12 -33 9 0 -6 -48 25 -84 54
-36 29 -78 86 -98 132 -35 80 -39 96 -45 169 -3 42 -6 1428 -8 3081 -2 2761
-3 3009 -18 3054 -54 157 -206 293 -352 313 -43 6 -124 11 -127 8z"/>
<path d="M7111 8239 c-85 -20 -137 -47 -194 -101 -93 -89 -141 -208 -140 -348
1 -95 19 -160 63 -230 32 -49 121 -140 139 -140 6 0 11 -3 11 -8 0 -13 116
-59 174 -67 24 -4 181 -8 348 -10 341 -2 374 -8 481 -79 89 -59 139 -141 161
-261 7 -39 11 -275 10 -680 l0 -620 -235 -1 c-289 -2 -375 -5 -416 -15 -19 -4
-33 -3 -33 2 0 6 -7 6 -17 1 -10 -6 -42 -12 -71 -16 -30 -3 -63 -11 -73 -17
-10 -5 -19 -8 -19 -5 0 3 -16 -2 -35 -10 -19 -8 -35 -12 -35 -9 0 12 -222 -83
-228 -97 -2 -5 -9 -8 -15 -8 -50 0 -315 -239 -392 -355 -22 -33 -42 -62 -45
-65 -3 -3 -16 -25 -29 -50 -14 -25 -29 -48 -34 -51 -5 -3 -9 -10 -9 -15 0 -5
-11 -34 -25 -64 -29 -63 -68 -179 -84 -248 -20 -90 -20 -84 -35 -211 -5 -45
-5 -2706 0 -2741 2 -14 7 -47 11 -75 13 -89 20 -119 57 -235 31 -94 119 -282
145 -308 7 -7 13 -17 13 -21 0 -4 11 -21 25 -37 14 -16 25 -32 25 -36 0 -20
196 -223 250 -259 19 -12 37 -26 40 -29 3 -3 23 -17 45 -31 139 -88 350 -163
525 -186 114 -15 460 -8 545 11 11 2 43 9 70 15 61 14 136 37 190 59 53 22
208 101 215 110 3 4 25 21 49 37 45 30 196 175 240 230 13 17 36 48 50 70 14
22 28 42 32 45 3 3 8 12 12 20 4 8 18 33 32 55 14 22 28 47 31 55 4 8 17 38
30 66 24 53 73 193 80 229 3 18 7 39 31 160 9 49 10 5225 0 5348 -8 102 -24
211 -38 247 -5 14 -10 34 -12 45 -2 11 -7 27 -10 35 -3 8 -11 33 -18 55 -12
40 -69 162 -92 199 -25 41 -101 151 -111 162 -75 80 -159 164 -164 164 -4 0
-15 8 -23 18 -19 20 -57 52 -63 52 -3 0 -32 18 -64 40 -103 68 -299 156 -392
175 -3 1 -30 7 -60 13 -146 32 -185 35 -529 36 -264 1 -335 -2 -390 -15z
m1049 -3470 c8 -11 3 -2949 -5 -3004 -20 -141 -92 -261 -177 -296 -16 -6 -28
-15 -28 -19 0 -3 -6 -7 -12 -8 -7 0 -38 -8 -68 -17 -98 -28 -318 -18 -385 18
-11 6 -25 12 -32 13 -23 4 -85 58 -112 98 -33 48 -74 126 -66 126 3 0 1 9 -5
20 -6 12 -14 42 -18 68 -8 63 -8 2574 1 2637 18 130 73 228 170 300 20 15 37
24 37 20 0 -4 6 -3 13 2 22 18 90 36 157 42 92 8 524 8 530 0z"/>
<path d="M4267 8244 c-1 -1 -26 -4 -55 -8 -84 -10 -124 -17 -167 -28 -22 -5
-47 -11 -56 -13 -30 -6 -114 -33 -151 -49 -21 -9 -40 -16 -43 -16 -9 1 -139
-71 -156 -86 -8 -8 -19 -14 -23 -14 -11 0 -112 -83 -173 -142 -29 -27 -78 -84
-110 -126 -32 -43 -61 -78 -65 -80 -5 -2 -8 -7 -8 -11 0 -4 -20 -43 -44 -85
-35 -62 -107 -220 -112 -246 0 -3 -6 -25 -13 -50 -7 -25 -15 -53 -17 -62 -11
-49 -14 -65 -19 -93 -3 -16 -8 -43 -12 -60 -7 -35 -13 -5326 -6 -5339 3 -4 7
-27 8 -50 9 -164 108 -434 220 -601 25 -37 45 -70 45 -72 0 -2 6 -10 13 -17 6
-7 23 -28 37 -47 34 -46 179 -187 213 -207 15 -9 27 -20 27 -24 0 -4 6 -8 14
-8 8 0 16 -3 18 -8 6 -15 134 -85 223 -122 75 -31 202 -66 270 -75 17 -2 46
-7 65 -10 59 -10 371 -13 435 -4 119 17 131 19 170 29 22 6 50 13 62 15 74 17
291 115 334 151 8 8 19 14 22 14 8 0 22 11 116 91 85 71 231 241 231 268 0 6
3 11 8 11 4 0 16 17 27 38 10 20 26 45 34 55 8 9 11 17 7 17 -4 0 1 12 12 27
37 55 113 274 127 372 3 17 7 45 10 63 2 18 7 57 10 88 7 67 8 5130 1 5253 -3
49 -7 96 -10 105 -3 9 -7 33 -10 52 -11 66 -17 91 -42 170 -13 44 -25 82 -25
85 0 2 -22 47 -49 100 -56 108 -115 198 -180 276 -62 75 -211 219 -226 219 -7
0 -14 4 -16 8 -4 12 -95 72 -107 72 -6 0 -11 5 -11 10 0 6 -4 10 -10 10 -5 0
-38 14 -72 30 -57 28 -192 75 -243 86 -78 16 -136 26 -175 30 -44 5 -348 12
-353 8z m273 -929 c36 -9 70 -17 75 -19 69 -18 175 -114 210 -191 52 -115 50
37 49 -2750 l0 -2600 -21 -70 c-26 -82 -72 -156 -116 -187 -18 -12 -34 -25
-37 -28 -25 -31 -181 -74 -260 -73 -34 1 -151 12 -170 16 -58 13 -150 55 -150
69 0 4 -6 8 -14 8 -17 0 -88 102 -110 160 -10 25 -22 70 -28 100 -10 59 -14
5143 -3 5215 20 141 101 263 210 315 100 48 252 63 365 35z"/>
<path d="M9069 1328 c-8 -18 -14 -35 -14 -38 0 -3 -4 -11 -8 -17 -5 -7 -6 -13
-2 -13 14 0 -128 -258 -165 -298 -11 -12 -20 -23 -20 -26 0 -23 -247 -262
-283 -275 -6 -2 -19 -12 -29 -21 -11 -10 -55 -36 -100 -59 -45 -22 -75 -42
-67 -42 18 -2 182 1 339 6 170 5 191 10 298 62 86 43 180 131 213 200 13 26
24 53 26 58 1 6 6 25 12 43 13 42 7 187 -10 232 -24 67 -62 125 -111 173 -28
26 -54 47 -58 47 -4 0 -14 -15 -21 -32z"/>
</g>
</svg>
