<?xml version="1.0" encoding="utf-8"?>
<!-- Generator: Adobe Illustrator 26.2.1, SVG Export Plug-In . SVG Version: 6.00 Build 0)  -->
<svg version="1.1" id="Camada_1" xmlns="http://www.w3.org/2000/svg" xmlns:xlink="http://www.w3.org/1999/xlink" x="0px" y="0px"
	 viewBox="0 0 724.2 259.4" style="enable-background:new 0 0 724.2 259.4;" xml:space="preserve">
<style type="text/css">
	.st0{clip-path:url(#SVGID_00000093152102496335165060000017308001013211931028_);fill:#FFFFFF;}
	.st1{clip-path:url(#SVGID_00000113345763192649297770000001407895804869477011_);fill:#FFFFFF;}
	.st2{clip-path:url(#SVGID_00000129916749897334002580000013111884250676680065_);}
	.st3{fill:#008D39;}
	.st4{font-family:'PTSans-BoldItalic';}
	.st5{font-size:16.8885px;}
	
		.st6{clip-path:url(#SVGID_00000129916749897334002580000013111884250676680065_);fill-rule:evenodd;clip-rule:evenodd;fill:#008D39;}
	
		.st7{clip-path:url(#SVGID_00000129916749897334002580000013111884250676680065_);fill-rule:evenodd;clip-rule:evenodd;fill:#E2291D;}
</style>
<g>
	<defs>
		<polygon id="SVGID_1_" points="0,0 1.7,259.4 724.1,259.4 724.2,0 		"/>
	</defs>
	<clipPath id="SVGID_00000122695582758833368390000002978613253670535816_">
		<use xlink:href="#SVGID_1_"  style="overflow:visible;"/>
	</clipPath>
	<path style="clip-path:url(#SVGID_00000122695582758833368390000002978613253670535816_);fill:#FFFFFF;" d="M673.4,17.5
		c-6.1-8.2-13-16.2-20.8-23.7C585-71.3,479.7-116.4,385.4-121.8C259.2-129,139-84,32.1-21c3.2,0.2,20.1,1.4,30.7,2.5
		C133-11.3,203,15.1,261,52.9c102.4,66.7,187.5,201.8,328.1,183C711.9,219.4,736.2,102,673.4,17.5"/>
</g>
<g>
	<defs>
		<rect id="SVGID_00000026857453775485161910000008629178378857443485_" x="-117.8" y="-7" width="1051.8" height="319.8"/>
	</defs>
	<clipPath id="SVGID_00000134965315428547093060000000964310654743667859_">
		<use xlink:href="#SVGID_00000026857453775485161910000008629178378857443485_"  style="overflow:visible;"/>
	</clipPath>
	<path style="clip-path:url(#SVGID_00000134965315428547093060000000964310654743667859_);fill:#FFFFFF;" d="M45.2,123.4h6.8
		l-5.4,25c-0.6,2.7-1.3,4.9-2.2,6.7c-0.9,1.8-2,3.3-3.2,4.4c-1.3,1.1-2.7,2-4.4,2.5c-1.7,0.5-3.6,0.7-5.9,0.7
		c-2.1,0-3.9-0.2-5.4-0.7c-1.5-0.5-2.7-1.2-3.6-2.1c-0.9-0.9-1.6-2-2-3.3c-0.4-1.3-0.6-2.6-0.6-4.1c0-0.7,0-1.5,0.1-2.3
		c0.1-0.8,0.2-1.6,0.4-2.4l5.2-24.4h7.2l-5.1,24.3c-0.3,1.4-0.4,2.5-0.4,3.4c0,1.8,0.5,3,1.4,3.8c0.9,0.7,2.3,1.1,4,1.1
		c2.2,0,3.9-0.6,5.1-1.9c1.2-1.3,2.1-3.4,2.8-6.2L45.2,123.4z"/>
	<path style="clip-path:url(#SVGID_00000134965315428547093060000000964310654743667859_);fill:#FFFFFF;" d="M64.1,162.1l3.1-14.9
		c0.2-1,0.4-1.9,0.5-2.7c0.1-0.8,0.2-1.5,0.2-2.1c0-1.7-0.6-2.5-1.9-2.5c-0.6,0-1.2,0.2-1.9,0.5c-0.6,0.3-1.2,0.8-1.7,1.3
		c-0.5,0.5-1,1.1-1.5,1.7c-0.5,0.6-0.8,1.2-1.1,1.7l-3.5,17.2h-6.8l5.9-27.6h5.4l-0.3,4.9h0.2c0.6-0.6,1.2-1.2,1.8-1.9
		c0.6-0.7,1.4-1.3,2.2-1.8c0.8-0.6,1.7-1,2.7-1.4c1-0.4,2.1-0.6,3.3-0.6c1.5,0,2.6,0.5,3.3,1.6c0.8,1.1,1.1,2.5,1,4.3
		c0.6-0.7,1.2-1.4,1.9-2.1c0.7-0.7,1.5-1.3,2.3-1.9c0.8-0.6,1.7-1,2.6-1.4c0.9-0.3,1.9-0.5,2.9-0.5c1.7,0,3,0.4,3.9,1.2
		c0.9,0.8,1.4,2.3,1.4,4.4c0,1.6-0.3,3.6-0.8,6.2l-3.5,16.6h-6.9l3.3-15.4c0.2-0.8,0.3-1.6,0.4-2.4c0.1-0.7,0.2-1.4,0.2-1.9
		c0-0.8-0.2-1.5-0.5-1.9c-0.3-0.4-0.8-0.7-1.6-0.7c-0.6,0-1.2,0.2-1.8,0.5c-0.6,0.3-1.2,0.8-1.7,1.3c-0.6,0.5-1,1.1-1.5,1.7
		c-0.5,0.6-0.8,1.2-1.1,1.8l-3.5,17H64.1z"/>
	<path style="clip-path:url(#SVGID_00000134965315428547093060000000964310654743667859_);fill:#FFFFFF;" d="M101.6,157.2
		c0.7,0,1.3-0.1,1.9-0.4c0.6-0.3,1.1-0.6,1.6-1.1c0.5-0.4,0.9-0.9,1.3-1.4c0.4-0.5,0.7-1,1-1.4l2.8-13c-0.4-0.2-0.9-0.3-1.4-0.4
		c-0.5-0.1-1.1-0.1-1.6-0.1c-1.3,0-2.5,0.4-3.5,1.2c-1,0.8-1.9,1.8-2.6,3.1c-0.7,1.3-1.3,2.7-1.6,4.3c-0.4,1.6-0.6,3.2-0.6,4.9
		c0,1.2,0.2,2.2,0.6,3.1C99.9,156.8,100.6,157.2,101.6,157.2 M114.6,151.1c-0.3,1.4-0.5,2.8-0.6,4.3c-0.1,1.4-0.2,2.8-0.2,4.1
		c0,0.5,0,1,0,1.5c0,0.5,0,0.9,0.1,1.3h-5l-0.8-4.7h-0.2c-0.4,0.7-0.9,1.3-1.6,2c-0.6,0.6-1.3,1.2-2.1,1.8c-0.8,0.5-1.6,1-2.5,1.3
		c-0.9,0.3-1.8,0.5-2.7,0.5c-2.4,0-4.2-0.8-5.4-2.4c-1.2-1.6-1.7-3.7-1.7-6.3c0-2.7,0.3-5.3,1-7.7c0.7-2.5,1.7-4.6,3.2-6.5
		c1.4-1.9,3.2-3.4,5.4-4.5c2.2-1.1,4.8-1.7,7.8-1.7c1.3,0,2.7,0.1,4.2,0.4c1.5,0.2,3,0.6,4.4,1L114.6,151.1z"/>
	<path style="clip-path:url(#SVGID_00000134965315428547093060000000964310654743667859_);fill:#FFFFFF;" d="M146,162.1l3.1-14.9
		c0.2-1,0.4-1.9,0.5-2.7c0.1-0.8,0.2-1.5,0.2-2.1c0-1.7-0.6-2.5-1.9-2.5c-0.6,0-1.2,0.2-1.9,0.5s-1.2,0.8-1.7,1.3
		c-0.5,0.5-1,1.1-1.5,1.7c-0.5,0.6-0.8,1.2-1.1,1.7l-3.5,17.2h-6.8l5.9-27.6h5.4l-0.3,4.9h0.2c0.6-0.6,1.2-1.2,1.8-1.9
		c0.6-0.7,1.4-1.3,2.2-1.8c0.8-0.6,1.7-1,2.7-1.4c1-0.4,2.1-0.6,3.3-0.6c1.5,0,2.6,0.5,3.3,1.6c0.8,1.1,1.1,2.5,1,4.3
		c0.6-0.7,1.2-1.4,1.9-2.1c0.7-0.7,1.5-1.3,2.3-1.9c0.8-0.6,1.7-1,2.7-1.4c0.9-0.3,1.9-0.5,2.9-0.5c1.7,0,3,0.4,3.9,1.2
		c0.9,0.8,1.4,2.3,1.4,4.4c0,1.6-0.3,3.6-0.8,6.2l-3.5,16.6h-6.9l3.3-15.4c0.2-0.8,0.3-1.6,0.4-2.4c0.1-0.7,0.2-1.4,0.2-1.9
		c0-0.8-0.2-1.5-0.5-1.9c-0.3-0.4-0.8-0.7-1.6-0.7c-0.6,0-1.2,0.2-1.8,0.5c-0.6,0.3-1.2,0.8-1.7,1.3c-0.6,0.5-1,1.1-1.5,1.7
		c-0.5,0.6-0.8,1.2-1.1,1.8l-3.5,17H146z"/>
	<path style="clip-path:url(#SVGID_00000134965315428547093060000000964310654743667859_);fill:#FFFFFF;" d="M183.6,157.2
		c0.7,0,1.3-0.1,1.9-0.4c0.6-0.3,1.1-0.6,1.6-1.1c0.5-0.4,0.9-0.9,1.3-1.4c0.4-0.5,0.7-1,1-1.4l2.8-13c-0.4-0.2-0.9-0.3-1.4-0.4
		c-0.5-0.1-1.1-0.1-1.6-0.1c-1.3,0-2.5,0.4-3.5,1.2c-1,0.8-1.9,1.8-2.6,3.1c-0.7,1.3-1.3,2.7-1.6,4.3c-0.4,1.6-0.6,3.2-0.6,4.9
		c0,1.2,0.2,2.2,0.6,3.1C181.9,156.8,182.6,157.2,183.6,157.2 M196.6,151.1c-0.3,1.4-0.5,2.8-0.6,4.3c-0.1,1.4-0.2,2.8-0.2,4.1
		c0,0.5,0,1,0,1.5c0,0.5,0,0.9,0.1,1.3h-5l-0.8-4.7h-0.2c-0.4,0.7-0.9,1.3-1.6,2c-0.6,0.6-1.3,1.2-2.1,1.8c-0.8,0.5-1.6,1-2.5,1.3
		c-0.9,0.3-1.8,0.5-2.7,0.5c-2.4,0-4.2-0.8-5.4-2.4c-1.2-1.6-1.7-3.7-1.7-6.3c0-2.7,0.3-5.3,1-7.7c0.7-2.5,1.7-4.6,3.2-6.5
		c1.4-1.9,3.2-3.4,5.4-4.5c2.2-1.1,4.8-1.7,7.8-1.7c1.3,0,2.7,0.1,4.2,0.4c1.5,0.2,3,0.6,4.4,1L196.6,151.1z"/>
	<path style="clip-path:url(#SVGID_00000134965315428547093060000000964310654743667859_);fill:#FFFFFF;" d="M211,134.5l0.1,5h0.2
		c0.8-1.5,1.8-2.8,3-3.8c1.2-1,2.6-1.6,4.4-1.6c0.8,0,1.7,0.2,2.8,0.5l-1.7,6c-0.4-0.1-0.7-0.2-1-0.3c-0.3-0.1-0.7-0.1-1-0.1
		c-1.5,0-2.9,0.5-4.2,1.5c-1.3,1-2.2,2.1-2.9,3.4l-3.6,17.2h-6.9l5.9-27.6H211z"/>
	<path style="clip-path:url(#SVGID_00000134965315428547093060000000964310654743667859_);fill:#FFFFFF;" d="M239,140.7
		c-0.7-0.4-1.4-0.7-2.2-0.8c-0.8-0.1-1.6-0.2-2.5-0.2c-1,0-2,0.3-2.9,1c-0.9,0.6-1.8,1.5-2.6,2.5c-0.8,1-1.4,2.3-1.8,3.7
		c-0.4,1.4-0.7,2.8-0.7,4.3c0,1.9,0.4,3.3,1.2,4.3c0.8,1,1.9,1.5,3.2,1.5c1.1,0,2.1-0.2,3.1-0.5c0.9-0.3,1.8-0.7,2.5-1.2l1.3,4.6
		c-1.2,0.9-2.6,1.6-4.1,2.2c-1.6,0.6-3.1,0.9-4.7,0.9c-1.8,0-3.3-0.3-4.5-0.8c-1.2-0.5-2.2-1.2-3-2.1c-0.8-0.9-1.3-1.9-1.7-3
		c-0.4-1.1-0.6-2.3-0.6-3.6c0-3.1,0.4-5.9,1.3-8.3c0.9-2.4,2.1-4.5,3.5-6.2c1.5-1.7,3.1-3,5-3.9c1.9-0.9,3.8-1.3,5.7-1.3
		c1.7,0,3.1,0.2,4.1,0.5c1,0.3,1.9,0.7,2.7,1.1L239,140.7z"/>
	<path style="clip-path:url(#SVGID_00000134965315428547093060000000964310654743667859_);fill:#FFFFFF;" d="M249.4,157.2
		c0.7,0,1.3-0.1,1.9-0.4c0.6-0.3,1.1-0.6,1.6-1.1c0.5-0.4,0.9-0.9,1.3-1.4c0.4-0.5,0.7-1,1-1.4l2.8-13c-0.4-0.2-0.9-0.3-1.4-0.4
		c-0.5-0.1-1.1-0.1-1.6-0.1c-1.3,0-2.5,0.4-3.5,1.2c-1,0.8-1.9,1.8-2.6,3.1c-0.7,1.3-1.3,2.7-1.6,4.3c-0.4,1.6-0.6,3.2-0.6,4.9
		c0,1.2,0.2,2.2,0.6,3.1C247.7,156.8,248.4,157.2,249.4,157.2 M262.4,151.1c-0.3,1.4-0.5,2.8-0.6,4.3c-0.1,1.4-0.2,2.8-0.2,4.1
		c0,0.5,0,1,0,1.5c0,0.5,0,0.9,0.1,1.3h-5l-0.8-4.7h-0.2c-0.4,0.7-0.9,1.3-1.6,2c-0.6,0.6-1.3,1.2-2.1,1.8c-0.8,0.5-1.6,1-2.5,1.3
		c-0.9,0.3-1.8,0.5-2.7,0.5c-2.4,0-4.2-0.8-5.4-2.4c-1.2-1.6-1.7-3.7-1.7-6.3c0-2.7,0.3-5.3,1-7.7c0.7-2.5,1.7-4.6,3.2-6.5
		c1.4-1.9,3.2-3.4,5.4-4.5c2.2-1.1,4.8-1.7,7.8-1.7c1.3,0,2.7,0.1,4.2,0.4c1.5,0.2,3,0.6,4.4,1L262.4,151.1z"/>
	<path style="clip-path:url(#SVGID_00000134965315428547093060000000964310654743667859_);fill:#FFFFFF;" d="M298.3,140.3
		c-0.4-0.3-0.9-0.5-1.5-0.6c-0.6-0.1-1.3-0.2-2.3-0.2c-1.1,0-2.1,0.4-3,1.1c-0.9,0.8-1.7,1.8-2.3,3.1c-0.6,1.3-1.1,2.8-1.5,4.4
		c-0.3,1.7-0.5,3.4-0.5,5.2c0,1.1,0.2,2,0.7,2.8c0.5,0.8,1.2,1.2,2,1.2c0.6,0,1.1-0.1,1.7-0.4c0.6-0.3,1.1-0.6,1.6-1.1
		c0.5-0.4,0.9-0.9,1.4-1.4c0.4-0.5,0.8-1,1-1.4L298.3,140.3z M302.6,152.4c-0.3,1.5-0.6,3-0.7,4.3c-0.1,1.3-0.2,2.6-0.2,3.8v0.9
		c0,0.3,0,0.6,0.1,0.9H297l-0.8-4.7h-0.2c-0.4,0.7-0.9,1.3-1.6,2c-0.6,0.6-1.3,1.2-2.1,1.8c-0.8,0.5-1.6,1-2.4,1.3
		c-0.9,0.3-1.7,0.5-2.6,0.5c-2.3,0-4-0.8-5.3-2.4c-1.2-1.6-1.8-3.8-1.8-6.7c0-2.6,0.3-5.1,1-7.5c0.7-2.4,1.7-4.5,2.9-6.4
		c1.3-1.9,2.8-3.3,4.6-4.4c1.8-1.1,3.8-1.7,6-1.7c1.1,0,1.9,0.1,2.6,0.2c0.7,0.1,1.4,0.3,2,0.6l2.4-11.2h6.9L302.6,152.4z"/>
	<path style="clip-path:url(#SVGID_00000134965315428547093060000000964310654743667859_);fill:#FFFFFF;" d="M317,157.2
		c0.7,0,1.3-0.1,1.9-0.4c0.6-0.3,1.1-0.6,1.6-1.1c0.5-0.4,0.9-0.9,1.3-1.4c0.4-0.5,0.7-1,1-1.4l2.8-13c-0.4-0.2-0.9-0.3-1.4-0.4
		c-0.5-0.1-1.1-0.1-1.6-0.1c-1.3,0-2.5,0.4-3.5,1.2c-1,0.8-1.9,1.8-2.6,3.1c-0.7,1.3-1.3,2.7-1.6,4.3c-0.4,1.6-0.6,3.2-0.6,4.9
		c0,1.2,0.2,2.2,0.6,3.1C315.3,156.8,316,157.2,317,157.2 M330,151.1c-0.3,1.4-0.5,2.8-0.6,4.3c-0.1,1.4-0.2,2.8-0.2,4.1
		c0,0.5,0,1,0,1.5c0,0.5,0,0.9,0.1,1.3h-5l-0.8-4.7h-0.2c-0.4,0.7-0.9,1.3-1.6,2c-0.6,0.6-1.3,1.2-2.1,1.8c-0.8,0.5-1.6,1-2.5,1.3
		c-0.9,0.3-1.8,0.5-2.7,0.5c-2.4,0-4.2-0.8-5.4-2.4c-1.2-1.6-1.7-3.7-1.7-6.3c0-2.7,0.3-5.3,1-7.7c0.7-2.5,1.7-4.6,3.2-6.5
		c1.4-1.9,3.2-3.4,5.4-4.5c2.2-1.1,4.8-1.7,7.8-1.7c1.3,0,2.7,0.1,4.2,0.4c1.5,0.2,3,0.6,4.4,1L330,151.1z"/>
</g>
<g>
	<defs>
		<rect id="SVGID_00000067207677433499005370000011355631588928606642_" x="468.7" y="92.6" width="163" height="102.3"/>
	</defs>
	<clipPath id="SVGID_00000172431587013175711630000013407880116196974259_">
		<use xlink:href="#SVGID_00000067207677433499005370000011355631588928606642_"  style="overflow:visible;"/>
	</clipPath>
	<g style="clip-path:url(#SVGID_00000172431587013175711630000013407880116196974259_);">
		<text transform="matrix(1.0357 0 0 1 589.4418 190.2257)" class="st3 st4 st5">Brasil</text>
	</g>
	
		<path style="clip-path:url(#SVGID_00000172431587013175711630000013407880116196974259_);fill-rule:evenodd;clip-rule:evenodd;fill:#008D39;" d="
		M604.8,165.4c0,0,5.5-21.7,6.3-25.1c1-3.9,0.2-7.4-3.4-7.3c-3.4,0-5.4,3-6.8,8.2l-6.6,24.2l-18.4,0c5-22,4.9-21.7,5.8-25.2
		c0.9-3.6,1.1-7.2-2.8-7.2c-3.4,0-5.6,3-7,8.2l-6.5,24.2l-19.2,0l12.6-47.7l19.2,0l-2.1,7.7c2.7-4.8,9.7-8.8,14.4-8.8
		c7.7,0,10.4,3.9,11.2,8.7c3.9-4.1,9.3-8.8,16.5-8.8c11.2,0,15.2,8.3,13.1,17.5c-2.6,11.8-6.6,25.3-8.3,31.3L604.8,165.4z"/>
	
		<path style="clip-path:url(#SVGID_00000172431587013175711630000013407880116196974259_);fill-rule:evenodd;clip-rule:evenodd;fill:#008D39;" d="
		M547,132.9c-5.1-1.7-12.4-2.9-16.8-2.9c-5,0-7.2,1.3-7.2,2.9c0,5.1,21.8-0.3,21.8,13.1c0,10.8-9.3,20.3-29.8,20.3
		c-7.2,0-14.2-2.3-17.6-4l3.7-13.4c4.2,2.2,11.7,4,16.8,4c5.6,0,7.5-1.2,7.5-3c0-4.4-21.8-0.8-21.8-13.1c0-10.9,9.7-20.3,29.9-20.3
		c5.3,0,12.3,1.6,17.4,3.3L547,132.9z"/>
	
		<path style="clip-path:url(#SVGID_00000172431587013175711630000013407880116196974259_);fill-rule:evenodd;clip-rule:evenodd;fill:#008D39;" d="
		M468.7,165c1.8-6.5,4.2-15.4,7.1-25.9c4.4-15.9,13.5-23.2,26-21.7L488.5,165H468.7z"/>
	
		<path style="clip-path:url(#SVGID_00000172431587013175711630000013407880116196974259_);fill-rule:evenodd;clip-rule:evenodd;fill:#E2291D;" d="
		M512.7,92.6c13.7,0,14.4,19.2-8.8,19.2c-17.2,0-21.9,7.5-21.9,7.5S486.8,92.6,512.7,92.6"/>
</g>
</svg>
